<?xml version="1.0" encoding="UTF-8" standalone="no"?>
<!-- Created with Inkscape (http://www.inkscape.org/) -->

<svg
   xmlns:dc="http://purl.org/dc/elements/1.1/"
   xmlns:cc="http://creativecommons.org/ns#"
   xmlns:rdf="http://www.w3.org/1999/02/22-rdf-syntax-ns#"
   xmlns:svg="http://www.w3.org/2000/svg"
   xmlns="http://www.w3.org/2000/svg"
   xmlns:sodipodi="http://sodipodi.sourceforge.net/DTD/sodipodi-0.dtd"
   xmlns:inkscape="http://www.inkscape.org/namespaces/inkscape"
   width="117.10359mm"
   height="116.14288mm"
   viewBox="0 0 414.93401 411.52987"
   id="svg2"
   version="1.1"
   inkscape:version="0.91 r13725"
   sodipodi:docname="noyori.svg"
   inkscape:export-filename="/home/yantene/temporary/noyori.png"
   inkscape:export-xdpi="162.48"
   inkscape:export-ydpi="162.48">
  <defs
     id="defs4" />
  <sodipodi:namedview
     id="base"
     pagecolor="#ffffff"
     bordercolor="#666666"
     borderopacity="1.0"
     inkscape:pageopacity="0.0"
     inkscape:pageshadow="2"
     inkscape:zoom="1.4"
     inkscape:cx="132.09241"
     inkscape:cy="-28.702728"
     inkscape:document-units="px"
     inkscape:current-layer="layer5"
     showgrid="false"
     fit-margin-top="0"
     fit-margin-left="0"
     fit-margin-right="0"
     fit-margin-bottom="0"
     inkscape:window-width="1920"
     inkscape:window-height="1050"
     inkscape:window-x="0"
     inkscape:window-y="30"
     inkscape:window-maximized="1"
     showguides="false" />
  <metadata
     id="metadata7">
    <rdf:RDF>
      <cc:Work
         rdf:about="">
        <dc:format>image/svg+xml</dc:format>
        <dc:type
           rdf:resource="http://purl.org/dc/dcmitype/StillImage" />
        <dc:title />
      </cc:Work>
    </rdf:RDF>
  </metadata>
  <g
     inkscape:groupmode="layer"
     id="layer2"
     inkscape:label="後ろ髪"
     transform="translate(-16.979744,-164.20124)">
    <path
       style="fill:#ececec;fill-opacity:1;fill-rule:evenodd;stroke:none;stroke-width:1px;stroke-linecap:butt;stroke-linejoin:miter;stroke-opacity:1"
       d="m 149.23262,354.68523 c -25.62449,183.58828 29.70548,211.06824 29.70548,211.06824 0,0 29.18659,-82.37486 21.64367,-124.15044 -7.5429,-41.77556 -51.34915,-86.9178 -51.34915,-86.9178 z"
       id="path4179-1-8-0"
       inkscape:connector-curvature="0"
       inkscape:export-filename="/home/yantene/temporary/noyori.png"
       inkscape:export-xdpi="162.48"
       inkscape:export-ydpi="162.48" />
    <path
       style="fill:#ececec;fill-opacity:1;fill-rule:evenodd;stroke:none;stroke-width:1px;stroke-linecap:butt;stroke-linejoin:miter;stroke-opacity:1"
       d="m 108.57143,359.50506 c -21.428573,135.71428 2.85714,190.71428 2.85714,190.71428 0,0 30.71429,-28.57142 37.85714,-61.42857 7.14286,-32.85714 -40.71428,-129.28571 -40.71428,-129.28571 z"
       id="path5243"
       inkscape:connector-curvature="0"
       inkscape:export-filename="/home/yantene/temporary/noyori.png"
       inkscape:export-xdpi="162.48"
       inkscape:export-ydpi="162.48" />
    <path
       style="fill:#ececec;fill-opacity:1;fill-rule:evenodd;stroke:none;stroke-width:1px;stroke-linecap:butt;stroke-linejoin:miter;stroke-opacity:1"
       d="m 366.7983,362.61841 c -54.21096,177.26377 -3.89786,213.1127 -3.89786,213.1127 0,0 41.79251,-76.75194 40.92127,-119.19408 -0.87123,-42.44212 -37.02341,-93.91862 -37.02341,-93.91862 z"
       id="path4179-1-8-0-0"
       inkscape:connector-curvature="0"
       inkscape:export-filename="/home/yantene/temporary/noyori.png"
       inkscape:export-xdpi="162.48"
       inkscape:export-ydpi="162.48" />
    <path
       style="fill:#ececec;fill-opacity:1;fill-rule:evenodd;stroke:none;stroke-width:1px;stroke-linecap:butt;stroke-linejoin:miter;stroke-opacity:1"
       d="m 314.76965,359.37728 c -54.21096,177.26377 -3.89786,213.1127 -3.89786,213.1127 0,0 41.79251,-76.75194 40.92127,-119.19408 -0.87123,-42.44212 -37.02341,-93.91862 -37.02341,-93.91862 z"
       id="path4179-1-8-0-0-0"
       inkscape:connector-curvature="0"
       inkscape:export-filename="/home/yantene/temporary/noyori.png"
       inkscape:export-xdpi="162.48"
       inkscape:export-ydpi="162.48" />
  </g>
  <g
     inkscape:groupmode="layer"
     id="layer5"
     inkscape:label="体"
     transform="translate(5.050763,-4.0406431)">
    <ellipse
       style="opacity:1;fill:#fbeaca;fill-opacity:1;stroke:none;stroke-width:2;stroke-linejoin:round;stroke-miterlimit:4;stroke-dasharray:none;stroke-opacity:1"
       id="path4319"
       cx="-78.958473"
       cy="470.08411"
       rx="46.659367"
       ry="44.272667"
       transform="matrix(0.9803221,-0.19740463,0.67824298,0.73483771,0,0)"
       inkscape:export-filename="/home/yantene/temporary/noyori.png"
       inkscape:export-xdpi="162.48"
       inkscape:export-ydpi="162.48" />
    <path
       style="fill:#fbeaca;fill-opacity:1;fill-rule:evenodd;stroke:none;stroke-width:1px;stroke-linecap:butt;stroke-linejoin:miter;stroke-opacity:1"
       d="M 91.127242,376.9875 C 211.8647,359.0871 367.19129,367.90368 365.40988,378.91805 363.62847,389.93242 311.38463,616.14834 222.70696,609.95864 134.0293,603.76894 91.127242,376.9875 91.127242,376.9875 Z"
       id="path4476"
       inkscape:connector-curvature="0" />
    <path
       style="display:inline;fill:#f3f3f3;fill-opacity:1;fill-rule:evenodd;stroke:none;stroke-width:1px;stroke-linecap:butt;stroke-linejoin:miter;stroke-opacity:1"
       d="m 136.96247,384.78043 c 126.30573,15.75247 167.0838,-7.59945 167.0838,-7.59945 0,0 -1.67424,111.56244 -74.97676,86.72716 -73.30253,-24.8353 -92.10704,-79.12771 -92.10704,-79.12771 z"
       id="path4490"
       inkscape:connector-curvature="0" />
    <path
       style="fill:#fee4f7;fill-opacity:1;fill-rule:evenodd;stroke:none;stroke-width:1px;stroke-linecap:butt;stroke-linejoin:miter;stroke-opacity:1"
       d="m 175.64925,366.83806 c 2.02031,8.08122 -2.80051,52.06134 44.564,50.75272 47.36452,-1.30861 66.85246,-19.30342 84.85282,-54.54823 0,0 69.32845,6.73092 78.21375,20.74031 72.30233,113.9985 -32.75689,186.34096 -103.46756,222.70645 C 209.10158,642.85481 97.25819,649.24133 64.93331,527.01287 32.608429,404.78441 71.856585,380.4792 90.617863,376.3076 c 19.550047,-4.34699 85.031387,-9.46954 85.031387,-9.46954 z"
       id="path4478"
       inkscape:connector-curvature="0"
       sodipodi:nodetypes="czcssssc" />
  </g>
  <g
     inkscape:label="顔"
     inkscape:groupmode="layer"
     id="layer1"
     transform="translate(-16.979744,-164.20124)">
    <path
       style="opacity:1;fill:#fcefd7;fill-opacity:1;stroke:none;stroke-width:3;stroke-linejoin:round;stroke-miterlimit:4;stroke-dasharray:none;stroke-opacity:1"
       d="m 421.34385,347.9901 c 0,49.64401 -10.10344,82.01577 -41.8812,114.54898 -31.77774,32.53321 -75.61483,43.16599 -125.11618,54.27766 -47.31384,10.62065 -101.261,-0.94058 -133.03875,-33.47379 -31.777744,-32.53321 -42.732671,-73.98507 -42.732671,-123.62908 0,-49.64401 14.630624,-93.73954 46.408371,-126.27275 31.77775,-32.53321 73.63154,-57.54471 122.12275,-57.54471 48.4912,1e-5 92.39175,20.12222 124.16949,52.65543 31.77774,32.5332 50.06819,69.79426 50.06819,119.43826 z"
       id="path4136"
       inkscape:connector-curvature="0"
       sodipodi:nodetypes="sssssssss" />
  </g>
  <g
     inkscape:groupmode="layer"
     id="layer4"
     inkscape:label="前髪"
     style="display:inline"
     transform="translate(5.050763,-4.0406431)">
    <path
       style="fill:#ececec;fill-opacity:1;fill-rule:evenodd;stroke:none;stroke-width:1px;stroke-linecap:butt;stroke-linejoin:miter;stroke-opacity:1"
       d="M 146.82598,20.160258 C -0.2546527,99.923523 -5.050763,167.90358 -5.050763,167.90358 c 0,0 71.142265,-19.03441 100.71827,-49.85204 C 125.2435,87.233912 146.82598,20.160258 146.82598,20.160258 Z"
       id="path4179"
       inkscape:connector-curvature="0"
       inkscape:export-filename="/home/yantene/temporary/noyori.png"
       inkscape:export-xdpi="162.48"
       inkscape:export-ydpi="162.48" />
    <path
       style="fill:#ececec;fill-opacity:1;fill-rule:evenodd;stroke:none;stroke-width:1px;stroke-linecap:butt;stroke-linejoin:miter;stroke-opacity:1"
       d="M 91.786029,53.38507 C 56.071744,89.813643 55.357458,127.6708 55.357458,127.6708 c 0,0 46.428592,-26.42859 66.428592,-37.857157 20,-11.428571 14.73829,5.19488 27.49999,38.928587 12.76171,33.7337 51.07144,73.57142 51.07144,73.57142 0,0 -9.80393,-38.45326 17.25054,-77.05184 27.05446,-38.598588 52.03518,-67.591019 52.03518,-67.591019 0,0 -31.74775,25.134231 0.71428,88.571429 36.4855,71.29986 70.562,84.33032 70.562,84.33032 0,0 -11.99057,-55.0446 0.15229,-84.33032 12.14286,-29.28571 21.42857,-34.28571 21.42857,-34.28571 0,0 11.42857,27.14286 2.85714,64.28571 -8.57142,37.14286 -26.42857,88.57144 -26.42857,88.57144 0,0 -38.57143,78.57143 -47.14285,92.85715 -8.57143,14.28571 -25.35714,33.92857 -25.35714,33.92857 0,0 120.35714,-71.07143 131.07142,-133.2143 10.71429,-62.14286 18.57144,-124.28571 5.71429,-146.42857 C 390.35748,89.813643 345.56669,10.773028 294.13812,6.4873179 242.70954,2.2015977 205.58771,4.8495378 205.58771,4.8495378 158.20486,15.718588 117.19776,27.745189 91.786029,53.38507 Z"
       id="path5123"
       inkscape:connector-curvature="0"
       sodipodi:nodetypes="ccszczcscscscscssscc"
       inkscape:export-filename="/home/yantene/temporary/noyori.png"
       inkscape:export-xdpi="162.48"
       inkscape:export-ydpi="162.48" />
    <path
       style="fill:#ececec;fill-opacity:1;fill-rule:evenodd;stroke:none;stroke-width:1px;stroke-linecap:butt;stroke-linejoin:miter;stroke-opacity:1"
       d="M 155.20869,33.414759 C 54.098615,141.31811 87.831009,189.5453 87.831009,189.5453 c 0,0 59.977431,-38.82559 71.939191,-70.62948 11.96178,-31.803888 -4.56151,-85.501061 -4.56151,-85.501061 z"
       id="path4179-1"
       inkscape:connector-curvature="0"
       inkscape:export-filename="/home/yantene/temporary/noyori.png"
       inkscape:export-xdpi="162.48"
       inkscape:export-ydpi="162.48" />
    <path
       style="fill:#ececec;fill-opacity:1;fill-rule:evenodd;stroke:none;stroke-width:1px;stroke-linecap:butt;stroke-linejoin:miter;stroke-opacity:1"
       d="m 339.7691,82.271982 c -25.62449,183.588298 29.70548,211.068258 29.70548,211.068258 0,0 29.18659,-82.37487 21.64367,-124.15045 -7.5429,-41.77556 -51.34915,-86.917808 -51.34915,-86.917808 z"
       id="path4179-1-8"
       inkscape:connector-curvature="0"
       inkscape:export-filename="/home/yantene/temporary/noyori.png"
       inkscape:export-xdpi="162.48"
       inkscape:export-ydpi="162.48" />
  </g>
  <g
     inkscape:groupmode="layer"
     id="layer3"
     inkscape:label="顔部品"
     style="display:inline"
     transform="translate(5.050763,-4.0406431)">
    <ellipse
       style="opacity:1;fill:#f893b4;fill-opacity:1;stroke:none;stroke-width:2;stroke-linejoin:round;stroke-miterlimit:4;stroke-dasharray:none;stroke-opacity:1"
       id="path4177"
       cx="113.75146"
       cy="366.04614"
       rx="12.25307"
       ry="20.532696"
       transform="matrix(0.98351535,-0.18082468,0.14895277,0.98884431,0,0)"
       inkscape:export-filename="/home/yantene/temporary/noyori.png"
       inkscape:export-xdpi="162.48"
       inkscape:export-ydpi="162.48" />
    <path
       style="fill:#084b6e;fill-opacity:1;fill-rule:evenodd;stroke:none;stroke-width:1px;stroke-linecap:butt;stroke-linejoin:miter;stroke-opacity:1"
       d="m 39.316035,182.1896 c 71.849085,-20.07839 114.811145,11.45231 114.811145,11.45231 0,0 -23.51006,-13.50029 -56.054901,-15.469 -34.669565,-2.09725 -58.756244,4.01669 -58.756244,4.01669 z"
       id="path4141"
       inkscape:connector-curvature="0"
       sodipodi:nodetypes="ccsc"
       inkscape:export-filename="/home/yantene/temporary/noyori.png"
       inkscape:export-xdpi="162.48"
       inkscape:export-ydpi="162.48" />
    <g
       id="g4305"
       transform="matrix(0.91905354,0,0,0.89373165,-6.4198116,-117.75737)"
       inkscape:export-filename="/home/yantene/temporary/noyori.png"
       inkscape:export-xdpi="162.48"
       inkscape:export-ydpi="162.48">
      <path
         inkscape:connector-curvature="0"
         id="path5296"
         d="m 239.43765,375.05791 c -1.07086,7.88421 0.62136,22.89809 3.6489,33.18107 3.02753,10.28297 9.84367,24.43409 9.84367,24.43409 0,0 34.41557,4.18631 44.30277,-1.83919 9.88719,-6.0255 23.5612,-34.01974 23.5612,-34.01974 0,0 9.25008,-13.62214 2.55784,-19.41187 -6.69224,-5.78974 -15.30975,-15.60389 -28.75899,-14.18723 -13.44924,1.41666 -32.60774,3.60082 -41.30204,6.63945 -8.6943,3.03863 -13.85335,5.20342 -13.85335,5.20342 z"
         style="fill:#ffffff;fill-opacity:1;stroke:none;enable-background:new" />
      <path
         inkscape:connector-curvature="0"
         id="path5359"
         d="m 266.46952,367.71953 c -8.35735,1.98783 -16.78336,6.61285 -20.80002,14.5153 -3.14474,7.58106 -1.29974,15.97877 0.28876,23.70221 2.20637,9.13612 6.87837,18.35513 15.12769,23.38468 4.16409,2.48921 9.14516,1.89769 13.75182,2.50823 6.06396,0.45925 13.2426,0.53891 17.79564,-4.16259 4.02866,-4.33416 6.49859,-9.87563 8.66539,-15.31107 2.23962,-5.96782 2.82236,-12.42065 2.20149,-18.73521 -0.29666,-6.80885 -0.46628,-14.1793 -4.37982,-20.0375 -3.25045,-3.82203 -7.68435,-6.7839 -12.5475,-8.07497 -6.72961,-1.57797 -13.68702,0.11902 -20.10345,2.21092 z"
         style="fill:#4da38f;fill-opacity:1;stroke:none;enable-background:new" />
      <path
         sodipodi:nodetypes="cccc"
         inkscape:connector-curvature="0"
         id="path6175"
         d="m 274.34347,383.3174 c -19.08745,1.67634 -20.40084,36.14905 -1.94147,39.78387 17.88567,4.36437 27.4844,-27.00323 12.73439,-37.53537 -3.04729,-2.37381 -5.97776,-2.62182 -10.79292,-2.2485 z"
         style="fill:#265042;fill-opacity:1;stroke:none;enable-background:new" />
      <path
         sodipodi:nodetypes="cccc"
         inkscape:connector-curvature="0"
         id="path6202"
         d="m 255.59996,379.0307 c -8.23776,6.90909 -0.85171,23.4084 10.06771,21.10565 10.14874,-4.51269 4.99865,-21.42279 -5.23532,-21.93717 -1.52138,-0.14636 -3.12178,-0.28279 -4.83239,0.83152 z"
         style="fill:#ffffff;fill-opacity:1;stroke:none;enable-background:new" />
      <ellipse
         transform="matrix(0.99650146,-0.08357537,0.08357537,0.99650146,0,0)"
         id="path6227"
         style="fill:#ffffff;fill-opacity:1;stroke:none;enable-background:new"
         cx="253.7982"
         cy="440.49124"
         rx="5.5939069"
         ry="5.6447606" />
      <ellipse
         transform="matrix(0.99650146,-0.08357537,0.08357537,0.99650146,0,0)"
         id="path6250"
         style="fill:#051c18;fill-opacity:1;stroke:none;enable-background:new"
         cx="241.18646"
         cy="425.64194"
         rx="7.6280551"
         ry="9.1536665" />
      <path
         sodipodi:nodetypes="cccscssscscscscsc"
         inkscape:connector-curvature="0"
         id="path4786"
         d="m 214.91258,374.35311 c 8.21012,0.5362 31.74184,-5.71257 51.9391,-11.09232 26.82503,-3.23679 36.77699,-3.88201 54.79179,11.35287 0,0 10.42225,13.04339 8.95773,14.54066 -4.02807,4.11818 -11.81837,11.5975 -11.81837,11.5975 0,0 6.07458,-12.75721 0.25898,-21.25114 -5.87097,-8.57479 -23.84309,-14.12649 -41.84967,-12.20804 -18.00658,1.91845 -32.85231,7.45025 -41.44693,14.49907 -8.59463,7.04881 -13.9617,16.07236 -13.9617,16.07236 0,0 0.3348,-5.74369 1.90412,-8.93725 1.56932,-3.19355 3.72975,-6.6408 3.72975,-6.6408 0,0 -3.62741,0.55939 -5.72964,2.26667 -1.90139,1.54417 -5.14573,4.36104 -5.14573,4.36104 0,0 1.2728,-4.90377 3.12982,-7.1008 1.85703,-2.19704 3.64214,-4.6432 3.64214,-4.6432 0,0 -0.0209,0.35897 -3.77159,-0.55123 -3.75066,-0.91021 -4.6298,-2.26539 -4.6298,-2.26539 z"
         style="fill:#000000;fill-opacity:1;stroke:none;enable-background:new" />
      <path
         sodipodi:nodetypes="cccccc"
         inkscape:connector-curvature="0"
         id="path6222"
         d="m 252.90383,432.66672 c 9.39284,0.5161 18.80804,1.27998 28.2127,0.74983 6.50429,-0.80094 12.93715,-2.10482 19.41764,-2.98558 -2.75705,2.46443 -8.21476,3.07534 -11.48678,3.79023 -6.1912,0.78068 -11.02761,1.2124 -17.28018,1.06787 -6.33694,-0.46323 -12.58881,-1.67093 -18.86338,-2.62235 z"
         style="fill:#000000;fill-opacity:1;stroke:none;enable-background:new" />
      <path
         inkscape:connector-curvature="0"
         id="path6252"
         d="m 219.59832,371.24616 c 17.44059,-1.79896 21.40455,-6.15402 21.40455,-6.15402 z"
         style="fill:#000000;fill-opacity:1;stroke:none;enable-background:new" />
      <path
         inkscape:connector-curvature="0"
         id="path6254"
         d="m 256.0922,409.15512 c 12.06228,-0.2421 24.03655,-2.39497 36.12045,-1.9643 3.02231,0.68829 5.33177,3.4613 5.43967,6.56058 0.27168,4.43594 -1.94085,8.81891 -5.33456,11.603 -3.72018,4.0228 -9.47111,5.00347 -14.70623,4.97787 -3.23644,-0.0691 -6.49067,-0.007 -9.71342,-0.32669 -6.8626,-1.02497 -12.36063,-6.39964 -15.09574,-12.56576 -0.80104,-1.906 -1.55985,-3.90544 -1.70043,-5.97969 0.25969,-2.20972 2.96232,-2.03817 4.62791,-2.25069 l 0.36235,-0.0543 0,0 z"
         style="fill:none;stroke:none;enable-background:new" />
      <path
         sodipodi:nodetypes="cscsc"
         inkscape:connector-curvature="0"
         id="path3420"
         d="m 329.31627,385.98228 c 0.14907,0.5275 5.78851,8.73958 7.11177,10.1504 1.32328,1.41083 2.02299,1.9452 2.02299,1.9452 0,0 -3.1634,-0.86377 -8.64047,-8.70072 -5.47708,-7.83694 -0.49429,-3.39488 -0.49429,-3.39488 z"
         style="fill:#000000;fill-opacity:1;stroke:none;enable-background:new" />
      <path
         sodipodi:nodetypes="cscsc"
         inkscape:connector-curvature="0"
         id="path3420-4"
         d="m 324.30004,385.56208 c 0.0344,0.54707 3.81361,9.7644 4.80932,11.42272 0.9957,1.65833 1.56688,2.32834 1.56688,2.32834 0,0 -2.90985,-1.51196 -6.60954,-10.32833 -3.69969,-8.81638 0.23334,-3.42273 0.23334,-3.42273 z"
         style="fill:#000000;fill-opacity:1;stroke:none;enable-background:new" />
    </g>
    <g
       id="g4291"
       transform="matrix(0.88973259,0,0,0.94803599,-7.3836956,-137.62245)"
       inkscape:export-filename="/home/yantene/temporary/noyori.png"
       inkscape:export-xdpi="162.48"
       inkscape:export-ydpi="162.48">
      <path
         inkscape:connector-curvature="0"
         id="path5296-6"
         d="m 153.79612,370.47113 c 0.76621,7.31328 -0.98887,21.16058 -3.80043,30.60482 -2.81156,9.44425 -8.96317,22.38478 -8.96317,22.38478 0,0 -29.72767,3.13914 -38.12489,-2.6429 -8.397214,-5.78203 -19.621068,-31.95903 -19.621068,-31.95903 0,0 -7.697923,-12.79308 -1.818691,-18.00449 5.879237,-5.21143 13.496578,-14.10326 25.053349,-12.50726 11.55679,1.59601 28.01619,4.02315 35.44504,7.01787 7.42886,2.99472 11.82986,5.10621 11.82986,5.10621 z"
         style="fill:#ffffff;fill-opacity:1;stroke:none;enable-background:new" />
      <path
         inkscape:connector-curvature="0"
         id="path5359-7"
         d="m 124.63151,363.48915 c 7.15943,2.01589 14.32576,6.47183 17.62906,13.86462 2.55862,7.07707 0.803,14.80316 -0.7183,21.91122 -2.08151,8.40121 -6.28849,16.82664 -13.49389,21.30202 -3.63616,2.2132 -7.91503,1.56029 -11.89518,2.02688 -5.23245,0.2957 -11.41753,0.21669 -15.24626,-4.2276 -3.384329,-4.09346 -5.402087,-9.27018 -7.160829,-14.34239 -1.810927,-5.56606 -2.18505,-11.54536 -1.525149,-17.37121 0.390425,-6.28981 0.682547,-13.10164 4.169639,-18.43547 2.875569,-3.46508 6.753499,-6.10962 10.968089,-7.20004 5.82798,-1.31603 11.78729,0.40115 17.27282,2.47197 z"
         style="fill:#4da38f;fill-opacity:1;stroke:none;enable-background:new" />
      <path
         sodipodi:nodetypes="cccc"
         inkscape:connector-curvature="0"
         id="path6175-1"
         d="m 119.68211,376.47617 c -16.42206,-1.81766 -23.152638,29.26189 -8.12774,35.79343 14.4206,7.09376 27.65477,-19.71574 16.89248,-31.86256 -2.19118,-2.68925 -4.63005,-3.42731 -8.76474,-3.93087 z"
         style="fill:#265042;fill-opacity:1;stroke:none;enable-background:new" />
      <path
         sodipodi:nodetypes="cccc"
         inkscape:connector-curvature="0"
         id="path6202-3"
         d="m 104.52309,369.30285 c -8.09575,4.83353 -4.5364,21.11132 5.07727,20.93071 9.32187,-2.32263 7.7212,-18.58224 -0.85332,-20.84029 -1.2633,-0.39916 -2.59506,-0.80313 -4.22395,-0.0904 z"
         style="fill:#ffffff;fill-opacity:1;stroke:none;enable-background:new" />
      <ellipse
         transform="matrix(0.99345847,0.11419403,-0.09925001,0.99506253,0,0)"
         id="path6227-6"
         style="fill:#ffffff;fill-opacity:1;stroke:none;enable-background:new"
         cx="167.21074"
         cy="393.27802"
         rx="4.8238912"
         ry="5.2171569" />
      <ellipse
         transform="matrix(0.99345847,0.11419403,-0.09925001,0.99506253,0,0)"
         id="path6250-1"
         style="fill:#051c18;fill-opacity:1;stroke:none;enable-background:new"
         cx="156.33504"
         cy="379.55362"
         rx="6.5780334"
         ry="8.4602547" />
      <path
         sodipodi:nodetypes="cccscssscscscscsc"
         inkscape:connector-curvature="0"
         id="path4786-8"
         d="m 174.93538,370.34099 c -7.08263,0.32122 -27.22847,-5.95746 -44.51933,-11.36164 -23.0423,-3.56355 -31.6019,-4.37184 -47.421218,9.33268 0,0 -9.235878,11.83952 -8.004045,13.25519 3.388099,3.89374 9.950304,10.97551 9.950304,10.97551 0,0 -4.979761,-11.92574 0.197924,-19.65636 5.226992,-7.80422 20.817715,-12.55564 36.290145,-10.3987 15.47241,2.15694 28.15057,7.58791 35.41413,14.28871 7.26356,6.7008 11.70785,15.15899 11.70785,15.15899 0,0 -0.17459,-5.31829 -1.46309,-8.30474 -1.28852,-2.98644 -3.08117,-6.22005 -3.08117,-6.22005 0,0 3.11348,0.59441 4.89047,2.21784 1.60721,1.46832 4.34601,4.14208 4.34601,4.14208 0,0 -0.99921,-4.56157 -2.55528,-6.63266 -1.55608,-2.07109 -3.04526,-4.37101 -3.04526,-4.37101 0,0 0.0109,0.33239 3.25968,-0.42951 3.24876,-0.7619 4.03288,-1.99633 4.03288,-1.99633 z"
         style="fill:#000000;fill-opacity:1;stroke:none;enable-background:new" />
      <path
         sodipodi:nodetypes="cccccc"
         inkscape:connector-curvature="0"
         id="path6222-4"
         d="m 141.05538,423.45543 c -8.10098,0.27747 -16.22615,0.78359 -24.31659,0.0933 -5.58677,-0.87896 -11.10205,-2.22146 -16.66673,-3.17373 2.32603,2.33749 7.01507,3.01847 9.81934,3.74912 5.31748,0.85356 9.4749,1.35563 14.86357,1.35496 5.46766,-0.29358 10.87681,-1.27737 16.30041,-2.0237 z"
         style="fill:#000000;fill-opacity:1;stroke:none;enable-background:new" />
      <path
         inkscape:connector-curvature="0"
         id="path6252-2"
         d="m 170.96075,367.36835 c -14.98726,-2.0344 -18.31545,-6.14582 -18.31545,-6.14582 z"
         style="fill:#000000;fill-opacity:1;stroke:none;enable-background:new" />
      <path
         inkscape:connector-curvature="0"
         id="path6254-5"
         d="m 132.74939,402.02521 c -10.38536,-0.4804 -20.65705,-2.72582 -31.07436,-2.58457 -2.61698,0.57218 -4.661229,3.08726 -4.815566,5.95086 -0.321906,4.09612 1.497086,8.1961 4.365186,10.84271 3.12477,3.799 8.05906,4.82812 12.56897,4.91579 2.78915,0.005 5.59104,0.13162 8.37338,-0.0955 5.93158,-0.80184 10.77393,-5.65485 13.25204,-11.29847 0.72776,-1.74544 1.42099,-3.57818 1.58317,-5.49325 -0.17991,-2.04883 -2.51129,-1.94768 -3.94178,-2.17962 l -0.31104,-0.058 0,0 z"
         style="fill:none;stroke:none;enable-background:new" />
      <path
         sodipodi:nodetypes="cscsc"
         inkscape:connector-curvature="0"
         id="path3420-7"
         d="m 76.16044,378.66137 c -0.138855,0.4846 -5.159218,7.95836 -6.326997,9.2348 -1.167786,1.27644 -1.781092,1.75569 -1.781092,1.75569 0,0 2.741987,-0.73145 7.615062,-7.86177 4.873081,-7.13031 0.493027,-3.12872 0.493027,-3.12872 z"
         style="fill:#000000;fill-opacity:1;stroke:none;enable-background:new" />
      <path
         sodipodi:nodetypes="cscsc"
         inkscape:connector-curvature="0"
         id="path3420-4-5"
         d="m 80.48962,378.37949 c -0.04047,0.50515 -3.478392,8.948 -4.368921,10.46027 -0.89053,1.51228 -1.395802,2.11969 -1.395802,2.11969 0,0 2.536425,-1.33622 5.897909,-9.41001 3.361491,-8.07379 -0.133186,-3.16995 -0.133186,-3.16995 z"
         style="fill:#000000;fill-opacity:1;stroke:none;enable-background:new" />
    </g>
    <path
       style="fill:#084b6e;fill-opacity:1;fill-rule:evenodd;stroke:none;stroke-width:1px;stroke-linecap:butt;stroke-linejoin:miter;stroke-opacity:1"
       d="m 301.37725,180.73296 c -70.63893,-19.42618 -112.69857,12.47919 -112.69857,12.47919 0,0 23.03165,-13.70665 54.98289,-15.96689 34.03723,-2.40781 57.71568,3.4877 57.71568,3.4877 z"
       id="path4141-8"
       inkscape:connector-curvature="0"
       sodipodi:nodetypes="ccsc"
       inkscape:export-filename="/home/yantene/temporary/noyori.png"
       inkscape:export-xdpi="162.48"
       inkscape:export-ydpi="162.48" />
    <flowRoot
       xml:space="preserve"
       id="flowRoot4482"
       style="font-style:normal;font-weight:normal;font-size:5px;line-height:125%;font-family:sans-serif;letter-spacing:0px;word-spacing:0px;fill:#000000;fill-opacity:1;stroke:none;stroke-width:1px;stroke-linecap:butt;stroke-linejoin:miter;stroke-opacity:1"
       transform="translate(0,-3.051758e-5)"><flowRegion
         id="flowRegion4484"><rect
           id="rect4486"
           width="82.832512"
           height="29.7995"
           x="242.43661"
           y="449.66315" /></flowRegion><flowPara
         id="flowPara4488" /></flowRoot>  </g>
</svg>
